<svg xmlns="http://www.w3.org/2000/svg" xmlns:xlink="http://www.w3.org/1999/xlink" version="1.1" width="36" height="32"><defs/><title>    Check
    </title>
    <path stroke-miterlimit="10" pointer-events="all" id="svg_143" class="selected" fill="#d5e8d4" stroke="#82b366" d="M 11.2 17.5 C 11.3 17 11.8 16.5 12.3 16.3 C 12.8 16.1 13.5 16 14 16.2 C 14.9 16.6 15.5 17.2 15.8 17.9 C 17.3 14.3 19.5 11 22.4 8.1 C 23.2 7.4 24.3 7.2 25.4 7.5 C 25.7 7.5 25.9 7.7 26 7.9 C 26.1 8.1 26.1 8.4 25.9 8.6 C 22 12.4 19.1 16.9 17.4 21.8 C 16.4 22.2 15.2 22.2 14.2 21.8 C 13.5 20.3 12.4 19 11.2 17.8 C 11.1 17.7 11.1 17.6 11.2 17.5 z"/>
</svg>